<svg width="85" height="85" viewBox="0 0 85 85" fill="none" xmlns="http://www.w3.org/2000/svg">
<path d="M42.5 7.08337C22.9494 7.08337 7.08331 22.9495 7.08331 42.5C7.08331 62.0506 22.9494 77.9167 42.5 77.9167C62.0505 77.9167 77.9166 62.0506 77.9166 42.5C77.9166 22.9495 62.0505 7.08337 42.5 7.08337ZM56.8809 59.1944C56.2811 59.1944 55.9098 59.0088 55.3528 58.6803C46.4415 53.3107 36.0736 53.0822 25.8342 55.1815C25.2772 55.3243 24.5489 55.5528 24.1347 55.5528C22.7495 55.5528 21.8783 54.4532 21.8783 53.2964C21.8783 51.8255 22.7495 51.1257 23.8205 50.8972C35.5166 48.3124 47.4697 48.5409 57.6663 54.6388C58.5374 55.1958 59.0516 55.6956 59.0516 56.9952C59.0516 58.2947 58.0376 59.1944 56.8809 59.1944ZM60.7224 49.8261C59.9798 49.8261 59.48 49.4977 58.9659 49.2264C50.0403 43.9424 36.7305 41.8146 24.8916 45.0278C24.2061 45.2134 23.8348 45.3991 23.1922 45.3991C21.6641 45.3991 20.4217 44.1566 20.4217 42.6286C20.4217 41.1005 21.1643 40.0866 22.6352 39.6724C26.6053 38.5585 30.6611 37.7302 36.602 37.7302C45.8703 37.7302 54.8244 40.0294 61.8792 44.228C63.0359 44.9135 63.4929 45.7989 63.4929 47.0414C63.4786 48.5837 62.279 49.8261 60.7224 49.8261ZM65.1495 38.9441C64.4069 38.9441 63.9499 38.7584 63.3073 38.3871C53.1393 32.3177 34.9597 30.8611 23.1922 34.1457C22.6781 34.2885 22.0354 34.517 21.3499 34.517C19.4649 34.517 18.0225 33.0461 18.0225 31.1467C18.0225 29.2045 19.2221 28.1049 20.5074 27.7336C25.5343 26.2626 31.1609 25.5629 37.2874 25.5629C47.7125 25.5629 58.6374 27.7336 66.6204 32.3892C67.7344 33.0318 68.4627 33.9172 68.4627 35.6166C68.4627 37.5588 66.8918 38.9441 65.1495 38.9441Z" fill="#003DA5" fill-opacity="0.2"/>
</svg>
